<?xml version="1.0" encoding="utf-8"?>
<svg viewBox="0 0 500 500" xmlns="http://www.w3.org/2000/svg">
  <path opacity="1.000000" stroke="none" d="M 379.137 286.766 C 379.514 290.138 380.549 293.588 380.161 296.869 C 377.94 315.65 370.158 332.626 362.233 349.484 C 360.34 353.511 356.995 356.836 354.894 360.789 C 352.928 364.49 352.591 369.172 346.638 369.267 C 345.494 369.285 344.631 372.725 343.246 374.224 C 337.046 380.936 330.403 387.261 324.493 394.214 C 317.964 401.895 309.224 406.475 301.36 412.323 C 287.632 422.532 272.189 429.085 255.954 433.635 C 246.678 436.235 236.975 437.697 227.363 438.634 C 211.996 440.132 196.556 441.232 181.126 441.566 C 173.588 441.729 165.857 440.392 158.489 438.601 C 152.969 437.258 147.832 434.226 142.628 431.73 C 134.437 427.8 124.971 427.063 117.59 420.919 C 113.212 417.274 109.734 413.558 107.825 408.036 C 106.337 403.731 108.624 402.499 111.625 401.908 C 113.564 401.525 115.834 402.107 117.807 402.727 C 129.116 406.28 140.49 406.297 152.014 403.946 C 154.414 403.456 157.005 403.987 159.474 403.729 C 164.761 403.174 170.323 403.265 175.234 401.55 C 184.498 398.316 193.363 393.947 202.433 390.141 C 207.848 387.869 213.659 386.335 218.708 383.449 C 224.467 380.156 229.678 375.858 234.947 371.766 C 243.03 365.487 251.08 359.153 258.89 352.542 C 261.728 350.14 263.847 346.887 266.266 343.998 C 266.559 343.649 266.577 342.881 266.892 342.765 C 275.57 339.557 276.201 329.289 283.024 324.439 C 286.389 322.048 288.564 318.782 289.02 314.54 C 289.069 314.081 289.251 313.352 289.548 313.247 C 297.042 310.591 296.204 302.887 298.896 297.437 C 301.618 291.925 302.546 285.491 305.478 280.126 C 309.827 272.17 306.378 264.845 305.086 256.474 C 297.057 257.285 288.895 257.648 280.906 259.017 C 265.64 261.631 250.358 264.353 235.338 268.063 C 231.074 269.116 226.779 272.06 222.419 273.469 C 218.795 274.641 214.408 273.465 210.36 273.309 C 209.104 273.26 207.771 272.825 206.611 273.116 C 201.743 274.34 197.403 274.359 194.366 269.426 C 193.833 268.56 192.618 267.927 191.586 267.585 C 184.537 265.246 177.107 263.726 170.494 260.512 C 165.583 258.125 161.252 253.98 157.679 249.757 C 156.656 248.547 158.404 243.663 160.202 241.629 C 167.438 233.444 175.219 225.741 182.741 217.805 C 186.251 214.103 189.402 210.025 193.16 206.606 C 195.151 204.796 198.093 204.031 201.288 202.458 C 201.288 201.665 201.288 199.887 201.288 199.459 C 204.498 197.411 207.18 196.293 209.071 194.39 C 217.482 185.927 225.623 177.196 233.968 168.665 C 235.773 166.82 238.058 165.452 240.049 163.778 C 245.789 158.95 251.648 154.247 257.165 149.174 C 262.588 144.186 267.582 138.735 272.891 133.619 C 276.924 129.732 281.182 126.081 285.293 122.274 C 290.964 117.023 296.591 111.725 302.236 106.447 C 302.016 106.032 301.797 105.618 301.577 105.204 C 295.079 107.963 288.58 110.722 282.082 113.482 C 278.719 114.91 275.344 116.309 271.998 117.775 C 267.606 119.698 263.11 121.435 258.887 123.682 C 251.827 127.44 244.967 131.572 237.979 135.467 C 236.312 136.396 234.377 136.851 232.729 137.807 C 230.479 139.112 228.484 140.871 226.196 142.092 C 224.279 143.115 222.098 143.647 220.483 144.808 C 218.502 146.446 216.756 148.659 214.485 149.588 C 211.165 150.945 208.715 152.404 207.142 155.992 C 204.045 163.06 194.355 163.833 187.728 157.92 C 182.875 163.021 182.879 163.017 177.364 157.363 C 176.91 156.897 176.217 156.075 175.87 156.182 C 169.678 158.093 166.492 153.922 163.123 150.051 C 162.706 149.572 162.019 148.827 161.611 148.916 C 154.811 150.389 150.003 145.891 143.702 142.236 C 144.952 139.428 145.664 135.186 148.146 132.743 C 155.842 125.164 162.915 116.583 172.966 111.925 C 181.374 108.027 188.963 103.071 196.331 97.516 C 198.961 95.534 203.106 95.703 206.252 94.233 C 212.529 91.301 217.437 85.344 225.231 85.796 C 232.143 78.822 241.922 77.821 250.26 73.818 C 269.773 64.451 290.809 60.421 311.915 56.839 C 318.986 55.64 326.226 55.437 333.922 55.21 C 334.917 56.09 335.301 56.748 335.853 56.955 C 343.68 59.891 351.785 62.233 359.287 65.836 C 364.464 68.322 369.196 71.184 375.058 72.409 C 380.258 73.495 385.546 76.063 389.77 79.311 C 393.055 81.836 394.838 86.369 397.055 90.147 C 397.285 90.539 396.009 91.944 395.285 92.748 C 391.286 97.186 387.047 101.424 383.261 106.035 C 378.554 111.768 374.319 117.888 369.621 123.628 C 368.585 124.894 366.434 125.221 364.838 126.061 C 362.134 127.484 359.297 128.863 360.417 132.809 C 358.954 134.4 357.492 135.991 355.367 137.715 C 354.113 138.122 353.408 138.273 352.946 138.691 C 345.357 145.569 337.795 152.478 330.233 159.387 C 326.723 162.594 322.28 165.241 319.911 169.143 C 313.858 179.115 302.814 183.896 296.197 193.229 C 294.286 195.924 290.255 197.015 287.714 199.395 C 285.527 201.443 284.079 204.279 282.037 206.885 C 281.281 207.592 280.793 208.179 280.317 209.275 C 280.363 210.122 280.396 210.46 280.429 210.798 C 280.061 210.992 279.692 211.187 278.791 211.263 C 274.901 211.572 273.253 213.463 273.364 216.86 C 273.364 216.86 273.32 216.78 272.993 216.822 C 268.746 219.88 268.464 221.406 271.401 223.708 C 271.401 223.708 271.321 223.749 271.405 224.11 C 272.298 224.898 273.107 225.698 273.915 225.697 C 286.089 225.673 296.551 230.926 307.204 235.941 C 316.274 240.211 325.773 243.563 334.959 247.601 C 339.279 249.5 343.08 253.188 347.517 254.088 C 358.023 256.218 363.335 264.28 369.314 271.509 C 373.142 276.137 375.9 281.65 379.137 286.766 M 239.005 222.652 C 239.418 221.658 239.832 220.664 240.286 219.751 C 240.286 219.751 240.205 219.71 240.953 219.727 C 241.776 219.133 242.744 218.665 243.395 217.92 C 245.429 215.591 247.343 213.158 250.038 210.758 C 254.458 209.275 257.088 206.239 258.353 201.749 C 258.794 200.184 259.829 198.633 260.978 197.45 C 264.424 193.901 268.304 190.751 271.564 187.049 C 276.009 181.999 280.049 176.591 284.24 171.32 C 285.958 169.159 287.618 166.952 289.995 164.698 C 293.078 161.022 296.162 157.346 299.291 153.751 C 299.291 153.751 299.209 153.706 299.973 153.732 C 303.14 153.517 304.42 151.709 304.289 148.754 C 304.289 148.754 304.207 148.707 304.919 148.678 C 310.039 144.058 315.299 139.582 320.247 134.783 C 328.477 126.803 333.765 115.992 344.216 110.073 C 345.906 109.116 347.125 106.893 347.943 104.99 C 348.435 103.845 348.2 101.762 347.414 100.892 C 346.774 100.183 344.439 100.081 343.542 100.702 C 340.963 102.485 338.731 104.772 336.317 106.779 C 336.317 106.779 336.399 106.825 335.676 106.861 C 333.939 108.941 332.486 111.376 330.413 113.038 C 322.316 119.531 313.913 125.646 305.865 132.198 C 303.311 134.278 301.509 137.282 299.323 139.781 C 299.323 139.781 299.404 139.821 298.699 139.886 C 295.28 142.83 291.865 145.779 288.439 148.714 C 287.94 149.142 287.321 149.443 286.872 149.912 C 280.585 156.46 277.959 166.127 269.229 170.624 C 268.769 170.861 268.71 171.794 268.354 172.33 C 267.355 173.838 266.376 175.37 265.243 176.776 C 263.809 178.554 262.265 180.248 260.707 181.922 C 258.815 183.956 256.98 186.067 254.906 187.904 C 250.003 192.249 247.366 198.765 241.283 202.008 C 240.625 202.359 240.653 203.852 240.17 204.706 C 239.282 206.277 238.418 207.913 237.249 209.266 C 231.321 216.128 225.058 222.611 222.975 232.059 C 222.128 235.9 222.886 238.171 226.176 239.03 C 230.125 240.062 234.387 240.975 238.369 240.559 C 245.537 239.811 252.613 238.114 259.682 236.598 C 260.634 236.393 261.655 235.042 261.97 234.015 C 262.11 233.561 260.505 231.923 259.802 231.99 C 258.225 232.139 256.716 233.017 254.375 233.737 C 253.684 233.358 252.994 232.978 252.152 231.922 C 249.628 229.633 248.526 230.606 247.432 233.754 C 245.762 234.036 244.092 234.317 242.176 233.849 C 240.571 233.97 238.932 233.926 237.367 234.248 C 234.719 234.791 232.03 235.781 231.151 230.681 C 230.784 230.062 230.418 229.444 230.291 228.238 C 230.411 227.843 230.531 227.449 231.361 227.43 C 233.342 225.876 235.323 224.321 237.804 222.766 C 237.804 222.766 238.304 222.766 239.005 222.652 M 287.986 186.666 C 289.758 184.033 291.531 181.399 294.042 178.757 C 296.14 176.883 298.283 175.056 300.318 173.116 C 301.434 172.052 302.422 170.84 303.372 169.621 C 305.295 167.156 307.416 164.783 308.882 162.064 C 309.343 161.208 308.177 158.352 307.394 158.193 C 305.92 157.893 303.12 158.458 302.731 159.417 C 300.616 164.635 295.826 166.861 292.07 170.319 C 288.601 173.514 284.169 176.805 284.714 183.017 C 283.91 183.266 283.107 183.516 281.59 183.774 C 280.495 184.771 279.399 185.769 278.304 187.566 C 278.304 188.633 278.304 189.699 277.599 190.835 C 276.167 192.145 274.735 193.456 273.296 195.494 C 271.632 197.585 269.968 199.675 267.598 201.84 C 267.021 202.145 266.134 202.306 265.915 202.777 C 263.495 207.992 259.235 211.403 254.96 215.023 C 251.441 218.004 251.543 224.205 254.639 227.931 C 257.544 224.467 260.394 221.069 263.29 217.753 C 263.29 217.753 263.208 217.707 263.922 217.672 C 264.595 217.248 265.508 216.98 265.898 216.375 C 267.785 213.444 268.847 209.208 271.489 207.72 C 275.428 205.5 275.977 202.114 277.591 198.17 C 278.495 196.702 279.399 195.234 280.945 193.683 C 281.398 193.044 281.851 192.405 282.837 191.527 C 283.326 190.94 283.815 190.353 284.984 189.698 C 285.757 188.72 286.53 187.743 287.986 186.666 M 296.918 380.639 C 299.032 377.643 301.147 374.647 303.375 371.18 C 303.561 370.875 303.832 370.723 304.938 370.741 C 308.728 369.416 311.924 367.494 313.075 362.633 C 314.132 361.645 315.189 360.657 317.111 359.707 C 318.526 357.527 319.825 355.261 321.38 353.187 C 323.909 349.814 327.476 346.93 329.038 343.186 C 331.826 336.503 333.698 329.396 335.492 322.349 C 337.969 312.619 340.144 302.806 342.114 292.961 C 342.412 291.474 340.897 289.624 340.221 287.942 C 338.363 288.689 336.134 289.034 334.759 290.304 C 333.55 291.421 333.093 293.522 332.658 295.276 C 331.347 300.571 330.086 305.886 329.042 311.239 C 328.229 315.406 327.803 319.316 321.827 316.043 C 320.722 315.438 318.299 317.239 316.485 317.93 C 317.924 319.206 319.267 320.623 320.845 321.694 C 321.552 322.175 322.729 321.964 324.068 322.107 C 322.434 327.232 320.898 332.047 319.321 336.782 C 319.321 336.782 319.401 336.824 318.691 336.887 C 317.562 339.18 316.433 341.473 314.759 344.154 C 311.567 347.437 308.163 350.543 305.227 354.041 C 299.627 360.713 295.675 368.885 287.229 372.905 C 285.874 373.55 284.881 375.171 283.978 376.513 C 281.46 380.256 279.004 383.265 273.55 383.141 C 271.2 383.087 267.349 386.068 266.634 388.417 C 264.121 396.668 257.197 400.674 251.178 405.041 C 243.081 410.916 233.794 415.13 225.295 420.496 C 223.693 421.508 223.388 424.575 222.485 426.694 C 224.336 427.345 226.462 428.926 227.988 428.475 C 233.017 426.989 237.967 425.049 242.675 422.73 C 245.775 421.202 248.405 418.722 251.29 416.75 C 251.29 416.75 251.209 416.705 251.998 416.739 C 254.333 415.681 256.968 415.014 258.949 413.493 C 265.666 408.339 272.326 403.083 278.673 397.485 C 284.748 392.126 290.405 386.293 296.287 380.749 C 296.287 380.749 296.207 380.708 296.918 380.639 M 310.348 329.372 C 308.108 332.061 305.724 334.647 303.704 337.492 C 302.971 338.524 303.108 340.174 302.848 341.543 C 304.335 341.735 306.022 342.455 307.26 341.988 C 308.874 341.379 310.345 340.009 311.501 338.646 C 314.153 335.521 316.831 332.354 318.934 328.864 C 319.531 327.875 318.182 325.714 317.726 324.09 C 316.552 324.719 315.294 325.234 314.226 326.009 C 313.043 326.866 312.034 327.963 310.348 329.372 M 301.392 353.59 C 302.026 351.657 303.199 349.687 303.074 347.803 C 303.008 346.813 300.416 345.022 299.423 345.29 C 297.995 345.676 296.268 347.449 295.94 348.914 C 295.164 352.381 297.747 353.395 301.392 353.59 Z" style="" transform="matrix(0.9999999999999999, 0, 0, 0.9999999999999999, 0, 0)"/>
  <path opacity="1.000000" stroke="none" d="M 360.744 132.677 C 359.297 128.863 362.134 127.484 364.838 126.061 C 366.434 125.221 368.585 124.894 369.621 123.628 C 374.319 117.888 378.554 111.768 383.261 106.035 C 387.047 101.424 391.286 97.186 395.285 92.748 C 396.009 91.944 397.285 90.539 397.055 90.147 C 394.838 86.369 393.055 81.836 389.77 79.311 C 385.546 76.063 380.258 73.495 375.058 72.409 C 369.196 71.184 364.464 68.322 359.287 65.836 C 351.785 62.233 343.68 59.891 335.853 56.955 C 335.301 56.748 334.917 56.09 334.379 55.287 C 338.606 56.014 343.001 56.826 347.187 58.25 C 351.699 59.785 356.074 61.768 360.389 63.807 C 362.27 64.696 363.852 66.215 365.571 67.447 C 366.454 68.08 367.586 69.436 368.183 69.231 C 373.336 67.463 377.112 69.748 381.109 72.615 C 383.772 74.525 387.188 75.369 390.23 76.771 C 395.848 79.359 396.942 85.316 399.714 89.974 C 400.138 90.686 398.922 92.606 398.147 93.753 C 396.292 96.496 394.246 99.109 392.283 101.779 C 391.903 102.297 391.663 102.995 391.169 103.343 C 382.574 109.395 376.768 117.853 371.075 126.427 C 370.671 127.036 369.654 127.802 369.124 127.672 C 364.732 126.59 363.459 130.461 360.744 132.677 Z" style="" transform="matrix(0.9999999999999999, 0, 0, 0.9999999999999999, 0, 0)"/>
  <path opacity="1.000000" stroke="none" d="M 379.214 286.334 C 375.9 281.65 373.142 276.137 369.314 271.509 C 363.335 264.28 358.023 256.218 347.517 254.088 C 343.08 253.188 339.279 249.5 334.959 247.601 C 325.773 243.563 316.274 240.211 307.204 235.941 C 296.551 230.926 286.089 225.673 273.915 225.697 C 273.107 225.698 272.298 224.898 271.425 224.07 C 284.934 222.909 296.953 227.788 308.736 233.755 C 313.867 236.354 319.435 238.112 324.482 240.846 C 329.384 243.502 335.281 243.879 339.686 246.372 C 345.809 249.838 352.766 251.982 358.204 255.86 C 364.975 260.689 370.052 268.116 375.172 274.938 C 377.422 277.935 377.971 282.208 379.214 286.334 Z" style="" transform="matrix(0.9999999999999999, 0, 0, 0.9999999999999999, 0, 0)"/>
  <path opacity="1.000000" stroke="none" d="M 282.304 206.766 C 284.079 204.279 285.527 201.443 287.714 199.395 C 290.255 197.015 294.286 195.924 296.197 193.229 C 302.814 183.896 313.858 179.115 319.911 169.143 C 322.28 165.241 326.723 162.594 330.233 159.387 C 337.795 152.478 345.357 145.569 352.946 138.691 C 353.408 138.273 354.113 138.122 355.061 137.827 C 354.542 139.133 353.883 140.689 352.754 141.745 C 344.469 149.499 335.954 157.012 327.804 164.903 C 324.2 168.393 321.504 172.809 317.972 176.387 C 315.031 179.366 311.243 181.5 308.241 184.43 C 304.009 188.561 300.249 193.174 296.073 197.367 C 295.105 198.339 293.232 198.364 291.85 198.99 C 291.158 199.304 290.155 199.95 290.109 200.512 C 289.73 205.103 286.334 206.908 282.577 208.338 C 282.286 207.568 282.295 207.167 282.304 206.766 Z" style="" transform="matrix(0.9999999999999999, 0, 0, 0.9999999999999999, 0, 0)"/>
  <path opacity="1.000000" stroke="none" d="M 271.356 223.325 C 268.464 221.406 268.746 219.88 273.033 216.845 C 272.704 218.863 272.007 220.902 271.356 223.325 Z" style="" transform="matrix(0.9999999999999999, 0, 0, 0.9999999999999999, 0, 0)"/>
  <path opacity="1.000000" stroke="none" d="M 273.676 216.74 C 273.253 213.463 274.901 211.572 278.591 211.371 C 277.279 213.272 275.633 214.946 273.676 216.74 Z" style="" transform="matrix(0.9999999999999999, 0, 0, 0.9999999999999999, 0, 0)"/>
  <path opacity="1.000000" stroke="none" d="M 282.037 206.885 C 282.295 207.167 282.286 207.568 282.222 208.57 C 282.167 209.17 282.175 209.264 281.703 209.116 C 280.922 208.901 280.613 208.833 280.304 208.766 C 280.793 208.179 281.281 207.592 282.037 206.885 Z" style="" transform="matrix(0.9999999999999999, 0, 0, 0.9999999999999999, 0, 0)"/>
  <path opacity="1.000000" stroke="none" d="M 280.317 209.275 C 280.613 208.833 280.922 208.901 281.678 209.125 C 281.715 209.753 281.303 210.224 280.661 210.746 C 280.396 210.46 280.363 210.122 280.317 209.275 Z" style="" transform="matrix(0.9999999999999999, 0, 0, 0.9999999999999999, 0, 0)"/>
  <path opacity="1.000000" stroke="none" d="M 299.051 139.853 C 300.042 140.136 300.708 140.407 301.312 140.779 C 302.001 141.204 302.635 141.72 303.292 142.197 C 302.674 142.719 302.118 143.347 301.429 143.747 C 297.185 146.208 290.893 147.684 289.215 151.308 C 287.536 154.934 281.497 155.827 283.2 161.082 C 278.936 161.816 278.232 165.528 276.883 168.678 C 276.508 169.553 276.301 170.5 275.921 171.726 C 274.252 171.726 272.455 171.726 270.021 171.726 C 272.85 175.953 269.997 177.437 267.245 178.732 C 263.952 180.282 261.595 182.279 261.172 186.239 C 261.058 187.298 259.563 188.688 258.415 189.075 C 253.393 190.767 250.928 194.089 251.303 199.742 C 245.958 199.337 243.934 201.996 242.004 206.698 C 240.045 211.474 235.281 215.026 232.247 219.458 C 229.573 223.365 227.455 227.68 225.349 231.942 C 223.81 235.054 226.061 237.243 228.493 237.587 C 232.715 238.185 237.151 238.215 241.377 237.623 C 247.215 236.805 252.941 235.189 259.44 233.755 C 257.924 233.755 256.912 233.755 255.539 233.677 C 256.716 233.017 258.225 232.139 259.802 231.99 C 260.505 231.923 262.11 233.561 261.97 234.015 C 261.655 235.042 260.634 236.393 259.682 236.598 C 252.613 238.114 245.537 239.811 238.369 240.559 C 234.387 240.975 230.125 240.062 226.176 239.03 C 222.886 238.171 222.128 235.9 222.975 232.059 C 225.058 222.611 231.321 216.128 237.249 209.266 C 238.418 207.913 239.282 206.277 240.17 204.706 C 240.653 203.852 240.625 202.359 241.283 202.008 C 247.366 198.765 250.003 192.249 254.906 187.904 C 256.98 186.067 258.815 183.956 260.707 181.922 C 262.265 180.248 263.809 178.554 265.243 176.776 C 266.376 175.37 267.355 173.838 268.354 172.33 C 268.71 171.794 268.769 170.861 269.229 170.624 C 277.959 166.127 280.585 156.46 286.872 149.912 C 287.321 149.443 287.94 149.142 288.439 148.714 C 291.865 145.779 295.28 142.83 299.051 139.853 Z" style="" transform="matrix(0.9999999999999999, 0, 0, 0.9999999999999999, 0, 0)"/>
  <path opacity="1.000000" stroke="none" d="M 316.137 343.766 C 314.87 345.924 313.813 348.245 312.294 350.21 C 308.088 355.65 303.682 360.936 299.373 366.298 C 298.466 367.427 297.872 369.25 296.73 369.678 C 288.547 372.743 284.739 380.57 278.605 385.824 C 277.493 386.777 275.726 386.965 274.261 387.506 C 274.017 387.069 273.773 386.632 273.529 386.195 C 273.372 387.692 273.215 389.19 273.023 391.024 C 271.389 390.278 270.085 389.684 268.832 389.112 C 266.974 393.523 266.633 398.852 260.405 400.414 C 258.636 400.858 257.823 404.32 255.986 405.422 C 247.115 410.739 238.006 415.658 229.075 420.877 C 227.069 422.049 225.435 423.858 223.63 425.375 C 224.059 426.151 224.489 426.927 224.919 427.703 C 229.849 425.752 234.817 423.891 239.696 421.821 C 243.345 420.273 246.88 418.456 250.855 416.714 C 248.405 418.722 245.775 421.202 242.675 422.73 C 237.967 425.049 233.017 426.989 227.988 428.475 C 226.462 428.926 224.336 427.345 222.485 426.694 C 223.388 424.575 223.693 421.508 225.295 420.496 C 233.794 415.13 243.081 410.916 251.178 405.041 C 257.197 400.674 264.121 396.668 266.634 388.417 C 267.349 386.068 271.2 383.087 273.55 383.141 C 279.004 383.265 281.46 380.256 283.978 376.513 C 284.881 375.171 285.874 373.55 287.229 372.905 C 295.675 368.885 299.627 360.713 305.227 354.041 C 308.163 350.543 311.567 347.437 315.24 343.96 C 315.72 343.766 316.137 343.766 316.137 343.766 Z" style="" transform="matrix(0.9999999999999999, 0, 0, 0.9999999999999999, 0, 0)"/>
  <path opacity="1.000000" stroke="none" d="M 316.678 359.689 C 318.401 353.586 320.556 347.677 326.214 343.535 C 327.896 342.304 327.779 338.664 328.563 336.151 C 331.607 326.39 334.952 316.711 337.637 306.853 C 339.103 301.47 339.471 295.788 340.334 290.241 C 339.889 289.923 339.443 289.604 338.997 289.285 C 337.771 290.858 335.816 292.273 335.435 294.029 C 332.721 306.548 329.857 319.004 324.241 330.612 C 323.176 332.816 321.499 334.723 319.733 336.815 C 320.898 332.047 322.434 327.232 324.068 322.107 C 322.729 321.964 321.552 322.175 320.845 321.694 C 319.267 320.623 317.924 319.206 316.485 317.93 C 318.299 317.239 320.722 315.438 321.827 316.043 C 327.803 319.316 328.229 315.406 329.042 311.239 C 330.086 305.886 331.347 300.571 332.658 295.276 C 333.093 293.522 333.55 291.421 334.759 290.304 C 336.134 289.034 338.363 288.689 340.221 287.942 C 340.897 289.624 342.412 291.474 342.114 292.961 C 340.144 302.806 337.969 312.619 335.492 322.349 C 333.698 329.396 331.826 336.503 329.038 343.186 C 327.476 346.93 323.909 349.814 321.38 353.187 C 319.825 355.261 318.526 357.527 316.678 359.689 Z" style="" transform="matrix(0.9999999999999999, 0, 0, 0.9999999999999999, 0, 0)"/>
  <path opacity="1.000000" stroke="none" d="M 304.563 148.693 C 305.2 147.267 306.038 145.685 307.209 144.409 C 315.671 135.192 324.205 126.042 332.688 116.844 C 333.055 116.446 333.14 115.788 332.689 114.599 C 331.768 115.284 330.841 115.962 329.928 116.657 C 326.858 118.995 323.696 121.224 320.748 123.707 C 316.308 127.447 310.918 130.691 308.016 135.424 C 305.733 139.146 302.273 137.643 299.744 139.814 C 301.509 137.282 303.311 134.278 305.865 132.198 C 313.913 125.646 322.316 119.531 330.413 113.038 C 332.486 111.376 333.939 108.941 335.993 107.238 C 336.034 109.284 335.757 110.954 335.48 112.624 C 339.238 109.198 345.236 108.054 346.153 102.101 C 342.765 103.749 339.564 105.305 336.363 106.861 C 338.731 104.772 340.963 102.485 343.542 100.702 C 344.439 100.081 346.774 100.183 347.414 100.892 C 348.2 101.762 348.435 103.845 347.943 104.99 C 347.125 106.893 345.906 109.116 344.216 110.073 C 333.765 115.992 328.477 126.803 320.247 134.783 C 315.299 139.582 310.039 144.058 304.563 148.693 Z" style="" transform="matrix(0.9999999999999999, 0, 0, 0.9999999999999999, 0, 0)"/>
  <path opacity="1.000000" stroke="none" d="M 263.244 217.671 C 260.394 221.069 257.544 224.467 254.639 227.931 C 251.543 224.205 251.441 218.004 254.96 215.023 C 259.235 211.403 263.495 207.992 265.915 202.777 C 266.134 202.306 267.021 202.145 267.997 202.127 C 269.619 202.384 271.022 202.728 272.026 202.244 C 273.907 201.338 275.557 199.952 277.304 198.766 C 275.977 202.114 275.428 205.5 271.489 207.72 C 268.847 209.208 267.785 213.444 265.898 216.375 C 265.508 216.98 264.595 217.248 263.61 217.293 C 263.573 215.253 263.849 213.594 264.261 211.119 C 259.672 214.062 254.418 215.228 254.632 221.68 C 257.578 220.308 260.411 218.99 263.244 217.671 Z" style="" transform="matrix(0.9999999999999999, 0, 0, 0.9999999999999999, 0, 0)"/>
  <path opacity="1.000000" stroke="none" d="M 285.304 182.766 C 284.169 176.805 288.601 173.514 292.07 170.319 C 295.826 166.861 300.616 164.635 302.731 159.417 C 303.12 158.458 305.92 157.893 307.394 158.193 C 308.177 158.352 309.343 161.208 308.882 162.064 C 307.416 164.783 305.295 167.156 303.372 169.621 C 302.422 170.84 301.434 172.052 300.318 173.116 C 298.283 175.056 296.14 176.883 293.665 178.483 C 293.279 178.022 293.271 177.836 293.393 177.325 C 298.313 172.283 298.313 172.283 297.374 168.05 C 293.751 172.693 290.586 176.749 287.156 180.936 C 286.363 181.633 285.833 182.199 285.304 182.766 Z" style="" transform="matrix(0.9999999999999999, 0, 0, 0.9999999999999999, 0, 0)"/>
  <path opacity="1.000000" stroke="none" d="M 249.261 209.652 C 252.199 205.881 256.56 203.157 257.114 197.632 C 257.258 196.198 259.636 195.037 260.881 193.654 C 266.495 187.425 271.997 181.095 277.686 174.935 C 281.195 171.136 284.967 167.578 288.954 164.06 C 289.293 164.394 289.298 164.58 289.304 164.766 C 287.618 166.952 285.958 169.159 284.24 171.32 C 280.049 176.591 276.009 181.999 271.564 187.049 C 268.304 190.751 264.424 193.901 260.978 197.45 C 259.829 198.633 258.794 200.184 258.353 201.749 C 257.088 206.239 254.458 209.275 249.662 210.483 C 249.278 210.023 249.269 209.837 249.261 209.652 Z" style="" transform="matrix(0.9999999999999999, 0, 0, 0.9999999999999999, 0, 0)"/>
  <path opacity="1.000000" stroke="none" d="M 251.603 416.722 C 257.315 412.826 261.104 405.892 268.655 403.771 C 270.188 403.341 270.92 400.569 272.386 399.297 C 275.813 396.326 279.554 393.719 282.986 390.754 C 285.147 388.889 287.499 386.928 288.826 384.497 C 290.412 381.591 292.277 380.32 295.844 380.714 C 290.405 386.293 284.748 392.126 278.673 397.485 C 272.326 403.083 265.666 408.339 258.949 413.493 C 256.968 415.014 254.333 415.681 251.603 416.722 Z" style="" transform="matrix(0.9999999999999999, 0, 0, 0.9999999999999999, 0, 0)"/>
  <path opacity="1.000000" stroke="none" d="M 310.649 329.164 C 312.034 327.963 313.043 326.866 314.226 326.009 C 315.294 325.234 316.552 324.719 317.726 324.09 C 318.182 325.714 319.531 327.875 318.934 328.864 C 316.831 332.354 314.153 335.521 311.501 338.646 C 310.345 340.009 308.874 341.379 307.26 341.988 C 306.022 342.455 304.335 341.735 302.848 341.543 C 303.108 340.174 302.971 338.524 303.704 337.492 C 305.724 334.647 308.108 332.061 310.649 329.164 Z" style="" transform="matrix(0.9999999999999999, 0, 0, 0.9999999999999999, 0, 0)"/>
  <path opacity="1.000000" stroke="none" d="M 285.009 182.891 C 285.833 182.199 286.363 181.633 287.102 181.289 C 287.323 182.224 287.334 182.937 287.333 184.04 C 287.315 185.208 287.309 185.987 286.932 186.773 C 285.808 187.776 285.056 188.771 284.304 189.766 C 283.815 190.353 283.326 190.94 282.249 191.688 C 281.209 192.488 280.756 193.127 280.304 193.766 C 279.399 195.234 278.495 196.702 277.447 198.468 C 275.557 199.952 273.907 201.338 272.026 202.244 C 271.022 202.728 269.619 202.384 268.35 202.09 C 269.968 199.675 271.632 197.585 273.652 195.127 C 275.44 193.428 276.872 192.097 278.304 190.766 C 278.304 189.699 278.304 188.633 278.693 187.165 C 280.157 185.765 281.23 184.765 282.304 183.766 C 283.107 183.516 283.91 183.266 285.009 182.891 Z" style="" transform="matrix(0.9999999999999999, 0, 0, 0.9999999999999999, 0, 0)"/>
  <path opacity="1.000000" stroke="none" d="M 301.021 353.652 C 297.747 353.395 295.164 352.381 295.94 348.914 C 296.268 347.449 297.995 345.676 299.423 345.29 C 300.416 345.022 303.008 346.813 303.074 347.803 C 303.199 349.687 302.026 351.657 301.021 353.652 Z" style="" transform="matrix(0.9999999999999999, 0, 0, 0.9999999999999999, 0, 0)"/>
  <path opacity="1.000000" stroke="none" d="M 242.299 234.224 C 238.58 236.17 234.696 238.008 230.592 235.681 C 229.571 235.102 229.061 233.622 228.747 232.161 C 229.887 231.766 230.595 231.766 231.304 231.766 C 232.03 235.781 234.719 234.791 237.367 234.248 C 238.932 233.926 240.571 233.97 242.299 234.224 Z" style="" transform="matrix(0.9999999999999999, 0, 0, 0.9999999999999999, 0, 0)"/>
  <path opacity="1.000000" stroke="none" d="M 289.649 164.732 C 289.298 164.58 289.293 164.394 289.275 163.929 C 292.357 160.354 295.451 157.058 298.895 153.716 C 296.162 157.346 293.078 161.022 289.649 164.732 Z" style="" transform="matrix(0.9999999999999999, 0, 0, 0.9999999999999999, 0, 0)"/>
  <path opacity="1.000000" stroke="none" d="M 248.875 209.705 C 249.269 209.837 249.278 210.023 249.295 210.487 C 247.343 213.158 245.429 215.591 243.395 217.92 C 242.744 218.665 241.776 219.133 240.579 219.719 C 239.931 219.155 239.656 218.599 239.382 218.043 C 243.239 216.185 243.675 210.564 248.875 209.705 Z" style="" transform="matrix(0.9999999999999999, 0, 0, 0.9999999999999999, 0, 0)"/>
  <path opacity="1.000000" stroke="none" d="M 296.562 380.673 C 295.246 375.556 298.81 373.603 302.897 371.706 C 301.147 374.647 299.032 377.643 296.562 380.673 Z" style="" transform="matrix(0.9999999999999999, 0, 0, 0.9999999999999999, 0, 0)"/>
  <path opacity="1.000000" stroke="none" d="M 304.564 370.732 C 306.828 368.322 309.467 365.921 312.367 363.297 C 311.924 367.494 308.728 369.416 304.564 370.732 Z" style="" transform="matrix(0.9999999999999999, 0, 0, 0.9999999999999999, 0, 0)"/>
  <path opacity="1.000000" stroke="none" d="M 287.645 186.716 C 287.309 185.987 287.315 185.208 287.68 183.982 C 289.781 181.573 291.522 179.611 293.263 177.649 C 293.271 177.836 293.279 178.022 293.295 178.487 C 291.531 181.399 289.758 184.033 287.645 186.716 Z" style="" transform="matrix(0.9999999999999999, 0, 0, 0.9999999999999999, 0, 0)"/>
  <path opacity="1.000000" stroke="none" d="M 231.006 227.242 C 232.166 225.836 233.681 224.618 235.639 223.083 C 236.489 222.766 236.896 222.766 237.304 222.766 C 235.323 224.321 233.342 225.876 231.006 227.242 Z" style="" transform="matrix(0.9999999999999999, 0, 0, 0.9999999999999999, 0, 0)"/>
  <path opacity="1.000000" stroke="none" d="M 277.951 190.8 C 276.872 192.097 275.44 193.428 273.656 194.763 C 274.735 193.456 276.167 192.145 277.951 190.8 Z" style="" transform="matrix(0.9999999999999999, 0, 0, 0.9999999999999999, 0, 0)"/>
  <path opacity="1.000000" stroke="none" d="M 316.284 343.435 C 316.137 343.766 315.72 343.766 315.512 343.766 C 316.433 341.473 317.562 339.18 319.046 336.855 C 318.411 338.917 317.421 341.011 316.284 343.435 Z" style="" transform="matrix(0.9999999999999999, 0, 0, 0.9999999999999999, 0, 0)"/>
  <path opacity="1.000000" stroke="none" d="M 281.947 183.77 C 281.23 184.765 280.157 185.765 278.693 186.765 C 279.399 185.769 280.495 184.771 281.947 183.77 Z" style="" transform="matrix(0.9999999999999999, 0, 0, 0.9999999999999999, 0, 0)"/>
  <path opacity="1.000000" stroke="none" d="M 299.591 153.719 C 300.682 152.106 302.155 150.506 303.935 148.79 C 304.42 151.709 303.14 153.517 299.591 153.719 Z" style="" transform="matrix(0.9999999999999999, 0, 0, 0.9999999999999999, 0, 0)"/>
  <path opacity="1.000000" stroke="none" d="M 252.227 232.261 C 251.209 232.984 250.114 233.369 248.661 233.676 C 248.526 230.606 249.628 229.633 252.227 232.261 Z" style="" transform="matrix(0.9999999999999999, 0, 0, 0.9999999999999999, 0, 0)"/>
  <path opacity="1.000000" stroke="none" d="M 237.554 222.766 C 236.896 222.766 236.489 222.766 235.776 222.766 C 236.332 221.511 237.195 220.256 238.189 219.716 C 238.316 221.209 238.31 221.987 238.304 222.766 C 238.304 222.766 237.804 222.766 237.554 222.766 Z" style="" transform="matrix(0.9999999999999999, 0, 0, 0.9999999999999999, 0, 0)"/>
  <path opacity="1.000000" stroke="none" d="M 284.644 189.732 C 285.056 188.771 285.808 187.776 286.932 186.773 C 286.53 187.743 285.757 188.72 284.644 189.732 Z" style="" transform="matrix(0.9999999999999999, 0, 0, 0.9999999999999999, 0, 0)"/>
  <path opacity="1.000000" stroke="none" d="M 231.227 231.223 C 230.595 231.766 229.887 231.766 228.825 231.766 C 228.806 230.863 229.141 229.96 229.763 228.941 C 230.418 229.444 230.784 230.062 231.227 231.223 Z" style="" transform="matrix(0.9999999999999999, 0, 0, 0.9999999999999999, 0, 0)"/>
  <path opacity="1.000000" stroke="none" d="M 238.654 222.709 C 238.31 221.987 238.316 221.209 238.334 220.041 C 238.768 219.687 239.191 219.723 239.929 219.714 C 239.832 220.664 239.418 221.658 238.654 222.709 Z" style="" transform="matrix(0.9999999999999999, 0, 0, 0.9999999999999999, 0, 0)"/>
  <path opacity="1.000000" stroke="none" d="M 280.624 193.725 C 280.756 193.127 281.209 192.488 281.983 191.807 C 281.851 192.405 281.398 193.044 280.624 193.725 Z" style="" transform="matrix(0.9999999999999999, 0, 0, 0.9999999999999999, 0, 0)"/>
</svg>
